<svg width="69" height="68" viewBox="0 0 69 68" fill="none" xmlns="http://www.w3.org/2000/svg">
<path d="M52.3327 38.5953C51.2972 39.6164 51.2972 41.2718 52.3333 42.2923C52.8303 42.7821 53.5047 43.0573 54.2081 43.0578H56.2404V37.8303H54.2081C53.5047 37.8282 52.8292 38.1039 52.3327 38.5953Z" fill="#382424"/>
<path d="M52.3323 51.4839C51.2957 52.5071 51.2979 54.1651 52.3361 55.1862C52.8331 55.675 53.5059 55.9501 54.2083 55.9512H56.2405V50.7184H54.2083C53.5043 50.7163 52.8288 50.992 52.3323 51.4839Z" fill="#382424"/>
<path d="M36.1063 12.8142C35.0696 13.8374 35.0718 15.4955 36.11 16.5165C36.6071 17.0053 37.2798 17.2805 37.9822 17.2815H40.0145V12.0487H37.9822C37.2782 12.0466 36.6027 12.3223 36.1063 12.8142Z" fill="#382424"/>
<path d="M52.3326 25.7077C51.2965 26.7282 51.296 28.3831 52.3315 29.4041C52.829 29.895 53.504 30.1702 54.208 30.1702H56.2402V24.9422H54.208C53.504 24.94 52.829 25.2157 52.3326 25.7077Z" fill="#382424"/>
<path d="M64.0512 4.13318H32.2034C30.3162 4.13371 28.7863 5.6414 28.7858 7.5013V17.1276H5.80014C3.61316 17.1313 1.84181 18.877 1.83803 21.0322V27.2532C1.84019 29.3861 3.57705 31.1233 5.74084 31.1579C5.39854 31.5117 4.99263 31.7996 4.54413 32.0079C2.70161 32.869 1.52807 34.6997 1.53077 36.7094V59.1813C1.52969 61.633 3.54524 63.6215 6.03302 63.6226H6.03733L64.0512 63.8669C65.9396 63.8669 67.471 62.3598 67.4743 60.4988V7.5013C67.471 5.64033 65.9396 4.13318 64.0512 4.13318ZM30.2574 49.5922C30.2558 50.9618 29.1297 52.0716 27.74 52.0732H25.2118C24.7821 52.0726 24.4328 52.4148 24.4301 52.8382V55.3351C24.4285 56.7046 23.3024 57.8144 21.9127 57.816H16.2148C14.8246 57.8165 13.6979 56.7062 13.6974 55.3361C13.6974 55.3356 13.6974 55.3356 13.6974 55.3351V52.8382C13.6947 52.4148 13.3454 52.0726 12.9158 52.0732H10.3768C8.98816 52.0695 7.86313 50.9607 7.85936 49.5922V43.9716C7.86098 42.6021 8.98708 41.4923 10.3768 41.4907H12.9158C13.3476 41.4901 13.6969 41.1459 13.6974 40.7204V38.2235C13.699 36.8539 14.8251 35.7441 16.2148 35.7426H21.9127C23.3013 35.7463 24.4264 36.855 24.4301 38.2235V40.7204C24.4307 41.1459 24.78 41.4901 25.2118 41.4907H27.74C29.1302 41.4901 30.2569 42.6005 30.2574 43.9706V43.9716V49.5922ZM34.6669 27.2532C34.668 28.5314 33.6168 29.5684 32.3199 29.5694C32.3188 29.5694 32.3177 29.5694 32.3166 29.5694H5.80014C4.5037 29.5678 3.4536 28.5308 3.45522 27.2532V21.0322C3.4563 19.7562 4.50531 18.7224 5.80014 18.7213H32.3166C33.6131 18.7197 34.6653 19.7546 34.6669 21.0322V27.2532ZM45.0762 56.3126C44.272 57.1031 43.1825 57.5461 42.0467 57.5451H37.9822C37.5089 57.544 37.0388 57.4648 36.5914 57.3113V55.5529C37.0075 55.8126 37.4895 55.9508 37.9822 55.9513H40.0144V50.7185H37.9822C37.49 50.7196 37.0075 50.8577 36.5914 51.1169V49.3585C37.0383 49.2034 37.5083 49.1242 37.9822 49.1247H42.0467C44.4089 49.1258 46.3225 51.0144 46.3215 53.3418C46.3209 54.4553 45.873 55.5231 45.0762 56.3126ZM45.0708 43.4191C44.2693 44.2102 43.1809 44.6537 42.0467 44.6516H37.9822C37.5089 44.6506 37.0388 44.5714 36.5914 44.4179V42.6594C37.0075 42.9192 37.4895 43.0573 37.9822 43.0579H40.0144V37.8304H37.9822C37.4905 37.8325 37.0092 37.9685 36.5914 38.2235V36.7094C36.5914 36.6297 36.5752 36.5554 36.5752 36.4757C37.027 36.3184 37.5029 36.2371 37.9822 36.2366H42.0467C44.4051 36.2377 46.3172 38.1199 46.3215 40.4441C46.3258 41.5608 45.8751 42.6323 45.0708 43.4191ZM45.0708 30.531C44.2693 31.322 43.1809 31.7656 42.0467 31.7635H37.9822C36.7493 31.763 35.5774 31.236 34.7694 30.3185C35.206 29.9796 35.5661 29.554 35.8259 29.0701C36.3224 29.7586 37.1256 30.1681 37.9822 30.1697H40.0144V24.9422H37.9822C37.3596 24.946 36.758 25.1659 36.2841 25.5638V23.6938C36.8205 23.4664 37.3984 23.349 37.9822 23.3485H42.0467C44.4051 23.3496 46.3172 25.2318 46.3215 27.556C46.3258 28.6727 45.8751 29.7442 45.0708 30.531ZM45.0708 17.6429C44.2693 18.4339 43.1809 18.8775 42.0467 18.8754H37.9822C35.6227 18.8759 33.7096 16.991 33.7096 14.6657C33.7096 12.3405 35.6216 10.4551 37.9811 10.4551H37.9827H42.0467C44.4067 10.4545 46.3204 12.3394 46.3215 14.6647C46.3215 15.7819 45.8719 16.8529 45.0708 17.6429ZM61.302 56.3126C60.4977 57.1031 59.4083 57.5461 58.2725 57.5451H54.208C51.8485 57.544 49.937 55.6581 49.938 53.3328C49.9391 51.0091 51.8501 49.1258 54.208 49.1247H58.2725C60.6347 49.1258 62.5483 51.0144 62.5473 53.3418C62.5467 54.4553 62.0988 55.5231 61.302 56.3126ZM61.2966 43.4191C60.495 44.2102 59.4067 44.6537 58.2725 44.6516H54.208C51.8506 44.65 49.9402 42.7673 49.9386 40.4441C49.9391 38.1204 51.8501 36.2371 54.208 36.2366H58.2725C60.6309 36.2377 62.5429 38.1199 62.5473 40.4441C62.5516 41.5608 62.1009 42.6323 61.2966 43.4191ZM61.2966 30.531C60.495 31.322 59.4067 31.7656 58.2725 31.7635H54.208C51.8506 31.7619 49.9402 29.8791 49.9386 27.556C49.9391 25.2323 51.8501 23.349 54.208 23.3485H58.2725C60.6309 23.3496 62.5429 25.2318 62.5473 27.556C62.5516 28.6727 62.1009 29.7442 61.2966 30.531ZM61.2966 17.6429C60.495 18.4339 59.4067 18.8775 58.2725 18.8754H54.208C51.8485 18.8759 49.9353 16.991 49.9353 14.6657C49.9348 12.3405 51.8474 10.4551 54.2069 10.4551H54.2085H58.273C60.633 10.4545 62.5467 12.3394 62.5478 14.6647C62.5473 15.7819 62.0977 16.8529 61.2966 17.6429Z" fill="#382424"/>
<path d="M52.3323 12.8142C51.2957 13.8374 51.2979 15.4955 52.3361 16.5165C52.8331 17.0053 53.5059 17.2805 54.2083 17.2815H56.2405V12.0487H54.2083C53.5043 12.0466 52.8288 12.3223 52.3323 12.8142Z" fill="#382424"/>
</svg>
