<svg width="220" height="72" viewBox="0 0 220 72" fill="none" xmlns="http://www.w3.org/2000/svg">
<path d="M85.732 41L82.619 37.128L83.092 36.853L86.392 41H85.732ZM80.386 41V33.3H80.947V41H80.386ZM80.76 37.348V36.842H83.103V37.348H80.76ZM83.125 37.205L82.608 37.095L85.567 33.3H86.194L83.125 37.205ZM86.5137 41L90.0557 33.3H90.6167L94.1587 41H93.5537L90.2097 33.652H90.4517L87.1187 41H86.5137ZM87.8117 38.833L87.9987 38.36H92.6077L92.7947 38.833H87.8117ZM95.0211 41.055C94.9331 41.055 94.8451 41.0477 94.7571 41.033C94.6764 41.0257 94.5811 41.011 94.4711 40.989L94.5371 40.472C94.6617 40.5013 94.7827 40.516 94.9001 40.516C95.2374 40.516 95.5087 40.384 95.7141 40.12C95.9267 39.856 96.0881 39.4417 96.1981 38.877C96.3081 38.305 96.3814 37.5607 96.4181 36.644L96.5281 33.3H101.577V41H101.016V33.63L101.181 33.806H96.8801L97.0451 33.63L96.9351 36.633C96.9057 37.4103 96.8507 38.0777 96.7701 38.635C96.6894 39.185 96.5721 39.6397 96.4181 39.999C96.2714 40.3583 96.0807 40.626 95.8461 40.802C95.6187 40.9707 95.3437 41.055 95.0211 41.055ZM104.352 41V33.3H104.913V40.054L110.16 33.3H110.655V41H110.094V34.257L104.847 41H104.352ZM119.138 33.3H119.699V41H119.138V33.3ZM113.99 41H113.429V33.3H113.99V41ZM119.204 37.337H113.924V36.842H119.204V37.337ZM122.474 41V33.3H123.035V40.054L128.282 33.3H128.777V41H128.216V34.257L122.969 41H122.474ZM137.26 33.3H137.821V41H137.26V33.3ZM132.112 41H131.551V33.3H132.112V41ZM137.326 37.337H132.046V36.842H137.326V37.337ZM140.596 41V33.3H145.359V33.806H140.992L141.157 33.63V41H140.596ZM146.848 41V33.3H149.609C150.254 33.3 150.808 33.4027 151.27 33.608C151.732 33.8133 152.088 34.1103 152.337 34.499C152.586 34.8803 152.711 35.346 152.711 35.896C152.711 36.4313 152.586 36.8933 152.337 37.282C152.088 37.6707 151.732 37.9677 151.27 38.173C150.808 38.3783 150.254 38.481 149.609 38.481H147.156L147.409 38.217V41H146.848ZM147.409 38.25L147.156 37.975H149.609C150.438 37.975 151.065 37.7953 151.49 37.436C151.923 37.0693 152.139 36.556 152.139 35.896C152.139 35.2287 151.923 34.7153 151.49 34.356C151.065 33.9893 150.438 33.806 149.609 33.806H147.156L147.409 33.531V38.25ZM152.943 41L156.485 33.3H157.046L160.588 41H159.983L156.639 33.652H156.881L153.548 41H152.943ZM154.241 38.833L154.428 38.36H159.037L159.224 38.833H154.241ZM167.292 40.725V33.806H163.354L163.288 35.874C163.266 36.4827 163.229 37.0657 163.178 37.623C163.126 38.1803 163.049 38.6827 162.947 39.13C162.844 39.57 162.701 39.9257 162.518 40.197C162.342 40.4683 162.118 40.615 161.847 40.637L161.198 40.494C161.506 40.516 161.755 40.4097 161.946 40.175C162.144 39.9403 162.298 39.6067 162.408 39.174C162.525 38.7413 162.609 38.239 162.661 37.667C162.712 37.095 162.749 36.4827 162.771 35.83L162.848 33.3H167.853V40.725H167.292ZM160.912 42.76L160.923 40.494H169.041V42.76H168.502V41H161.462L161.451 42.76H160.912ZM174.135 41.055C173.563 41.055 173.032 40.9597 172.54 40.769C172.056 40.571 171.635 40.296 171.275 39.944C170.916 39.592 170.637 39.1813 170.439 38.712C170.241 38.2353 170.142 37.7147 170.142 37.15C170.142 36.5853 170.241 36.0683 170.439 35.599C170.637 35.1223 170.916 34.708 171.275 34.356C171.642 34.004 172.067 33.7327 172.551 33.542C173.035 33.344 173.563 33.245 174.135 33.245C174.678 33.245 175.184 33.333 175.653 33.509C176.13 33.685 176.537 33.9527 176.874 34.312L176.522 34.675C176.192 34.3523 175.826 34.1213 175.422 33.982C175.026 33.8353 174.605 33.762 174.157 33.762C173.666 33.762 173.208 33.8463 172.782 34.015C172.364 34.1837 171.998 34.422 171.682 34.73C171.374 35.038 171.132 35.3973 170.956 35.808C170.788 36.2187 170.703 36.666 170.703 37.15C170.703 37.634 170.788 38.0813 170.956 38.492C171.132 38.9027 171.374 39.262 171.682 39.57C171.998 39.878 172.364 40.1163 172.782 40.285C173.208 40.4537 173.666 40.538 174.157 40.538C174.605 40.538 175.026 40.4683 175.422 40.329C175.826 40.1823 176.192 39.944 176.522 39.614L176.874 39.977C176.537 40.3363 176.13 40.6077 175.653 40.791C175.184 40.967 174.678 41.055 174.135 41.055ZM184.034 41L180.921 37.128L181.394 36.853L184.694 41H184.034ZM178.688 41V33.3H179.249V41H178.688ZM179.062 37.348V36.842H181.405V37.348H179.062ZM181.427 37.205L180.91 37.095L183.869 33.3H184.496L181.427 37.205ZM184.815 41L188.357 33.3H188.918L192.46 41H191.855L188.511 33.652H188.753L185.42 41H184.815ZM186.113 38.833L186.3 38.36H190.909L191.096 38.833H186.113ZM198.435 41V38.415L198.611 38.58H195.982C195.388 38.58 194.875 38.4773 194.442 38.272C194.017 38.0667 193.69 37.7697 193.463 37.381C193.243 36.9923 193.133 36.5267 193.133 35.984C193.133 35.4047 193.254 34.917 193.496 34.521C193.745 34.1177 194.09 33.8133 194.53 33.608C194.977 33.4027 195.498 33.3 196.092 33.3H198.996V41H198.435ZM193.133 41L195.014 38.305H195.608L193.738 41H193.133ZM198.435 38.272V33.63L198.611 33.806H196.136C195.366 33.806 194.768 33.9893 194.343 34.356C193.918 34.7227 193.705 35.2617 193.705 35.973C193.705 36.6477 193.899 37.172 194.288 37.546C194.684 37.9127 195.267 38.096 196.037 38.096H198.611L198.435 38.272ZM83.686 52.055C83.114 52.055 82.5823 51.9597 82.091 51.769C81.607 51.571 81.1817 51.296 80.815 50.944C80.4557 50.5847 80.177 50.1703 79.979 49.701C79.781 49.2243 79.682 48.7073 79.682 48.15C79.682 47.5927 79.781 47.0793 79.979 46.61C80.177 46.1333 80.4557 45.719 80.815 45.367C81.1817 45.0077 81.607 44.7327 82.091 44.542C82.5823 44.344 83.114 44.245 83.686 44.245C84.258 44.245 84.786 44.344 85.27 44.542C85.7613 44.7327 86.1867 45.004 86.546 45.356C86.9053 45.708 87.184 46.1223 87.382 46.599C87.5873 47.0683 87.69 47.5853 87.69 48.15C87.69 48.7147 87.5873 49.2353 87.382 49.712C87.184 50.1813 86.9053 50.592 86.546 50.944C86.1867 51.296 85.7613 51.571 85.27 51.769C84.786 51.9597 84.258 52.055 83.686 52.055ZM83.686 51.538C84.1773 51.538 84.632 51.4537 85.05 51.285C85.468 51.1163 85.831 50.878 86.139 50.57C86.447 50.262 86.6853 49.9027 86.854 49.492C87.03 49.0813 87.118 48.634 87.118 48.15C87.118 47.6587 87.03 47.2113 86.854 46.808C86.6853 46.3973 86.447 46.038 86.139 45.73C85.831 45.422 85.468 45.1837 85.05 45.015C84.632 44.8463 84.1773 44.762 83.686 44.762C83.1947 44.762 82.74 44.8463 82.322 45.015C81.904 45.1837 81.5373 45.422 81.222 45.73C80.914 46.038 80.672 46.3973 80.496 46.808C80.3273 47.2113 80.243 47.6587 80.243 48.15C80.243 48.634 80.3273 49.0813 80.496 49.492C80.672 49.9027 80.914 50.262 81.222 50.57C81.5373 50.878 81.904 51.1163 82.322 51.285C82.74 51.4537 83.1947 51.538 83.686 51.538ZM89.7639 52V44.3H95.2529V44.795H90.3249V47.567H92.9319C93.8339 47.567 94.5196 47.7503 94.9889 48.117C95.4583 48.4837 95.6929 49.0227 95.6929 49.734C95.6929 50.4747 95.4436 51.0393 94.9449 51.428C94.4536 51.8093 93.7313 52 92.7779 52H89.7639ZM90.3249 51.527H92.7889C93.5589 51.527 94.1419 51.3803 94.5379 51.087C94.9339 50.7863 95.1319 50.3427 95.1319 49.756C95.1319 48.6047 94.3509 48.029 92.7889 48.029H90.3249V51.527ZM96.772 52.055C96.684 52.055 96.596 52.0477 96.508 52.033C96.4274 52.0257 96.332 52.011 96.222 51.989L96.288 51.472C96.4127 51.5013 96.5337 51.516 96.651 51.516C96.9884 51.516 97.2597 51.384 97.465 51.12C97.6777 50.856 97.839 50.4417 97.949 49.877C98.059 49.305 98.1324 48.5607 98.169 47.644L98.279 44.3H103.328V52H102.767V44.63L102.932 44.806H98.631L98.796 44.63L98.686 47.633C98.6567 48.4103 98.6017 49.0777 98.521 49.635C98.4404 50.185 98.323 50.6397 98.169 50.999C98.0224 51.3583 97.8317 51.626 97.597 51.802C97.3697 51.9707 97.0947 52.055 96.772 52.055ZM104.926 52L108.468 44.3H109.029L112.571 52H111.966L108.622 44.652H108.864L105.531 52H104.926ZM106.224 49.833L106.411 49.36H111.02L111.207 49.833H106.224ZM117.363 52.055C116.791 52.055 116.259 51.9597 115.768 51.769C115.284 51.571 114.862 51.296 114.503 50.944C114.143 50.592 113.865 50.1813 113.667 49.712C113.469 49.2353 113.37 48.7147 113.37 48.15C113.37 47.5853 113.469 47.0683 113.667 46.599C113.865 46.1223 114.143 45.708 114.503 45.356C114.869 45.004 115.295 44.7327 115.779 44.542C116.263 44.344 116.791 44.245 117.363 44.245C117.905 44.245 118.411 44.333 118.881 44.509C119.357 44.685 119.764 44.9527 120.102 45.312L119.75 45.675C119.42 45.3523 119.053 45.1213 118.65 44.982C118.254 44.8353 117.832 44.762 117.385 44.762C116.893 44.762 116.435 44.8463 116.01 45.015C115.592 45.1837 115.225 45.422 114.91 45.73C114.602 46.038 114.36 46.3973 114.184 46.808C114.015 47.2187 113.931 47.666 113.931 48.15C113.931 48.634 114.015 49.0813 114.184 49.492C114.36 49.9027 114.602 50.262 114.91 50.57C115.225 50.878 115.592 51.1163 116.01 51.285C116.435 51.4537 116.893 51.538 117.385 51.538C117.832 51.538 118.254 51.4683 118.65 51.329C119.053 51.1823 119.42 50.944 119.75 50.614L120.102 50.977C119.764 51.3363 119.357 51.6077 118.881 51.791C118.411 51.967 117.905 52.055 117.363 52.055ZM123.315 52V44.63L123.48 44.806H120.543V44.3H126.648V44.806H123.711L123.876 44.63V52H123.315ZM131.237 47.116C132.139 47.116 132.828 47.3177 133.305 47.721C133.781 48.1243 134.02 48.722 134.02 49.514C134.02 50.328 133.767 50.9477 133.261 51.373C132.762 51.791 132.04 52 131.094 52H128.146V44.3H128.707V47.116H131.237ZM131.105 51.527C131.875 51.527 132.458 51.3583 132.854 51.021C133.25 50.6837 133.448 50.185 133.448 49.525C133.448 48.8723 133.25 48.3883 132.854 48.073C132.465 47.7503 131.882 47.589 131.105 47.589H128.707V51.527H131.105Z" fill="#787878"/>
<path d="M80.635 30V19.5H89.68V30H88.21V20.415L88.57 20.805H81.745L82.12 20.415V30H80.635ZM92.9543 30V19.5H97.0493C97.9693 19.5 98.7543 19.645 99.4043 19.935C100.054 20.225 100.554 20.645 100.904 21.195C101.254 21.745 101.429 22.4 101.429 23.16C101.429 23.92 101.254 24.575 100.904 25.125C100.554 25.665 100.054 26.085 99.4043 26.385C98.7543 26.675 97.9693 26.82 97.0493 26.82H93.7793L94.4543 26.115V30H92.9543ZM94.4543 26.265L93.7793 25.515H97.0043C97.9643 25.515 98.6893 25.31 99.1793 24.9C99.6793 24.49 99.9293 23.91 99.9293 23.16C99.9293 22.41 99.6793 21.83 99.1793 21.42C98.6893 21.01 97.9643 20.805 97.0043 20.805H93.7793L94.4543 20.055V26.265ZM103.516 30V19.5H105.001V27.6L111.211 19.5H112.591V30H111.121V21.915L104.896 30H103.516ZM115.864 30V19.5H117.349V24H120.064V25.35H117.349V30H115.864ZM124.564 30.12C123.804 30.12 123.099 29.99 122.449 29.73C121.799 29.46 121.234 29.085 120.754 28.605C120.274 28.115 119.899 27.545 119.629 26.895C119.369 26.245 119.239 25.53 119.239 24.75C119.239 23.97 119.369 23.255 119.629 22.605C119.899 21.955 120.274 21.39 120.754 20.91C121.234 20.42 121.799 20.045 122.449 19.785C123.099 19.515 123.804 19.38 124.564 19.38C125.324 19.38 126.029 19.515 126.679 19.785C127.339 20.045 127.909 20.42 128.389 20.91C128.869 21.39 129.239 21.955 129.499 22.605C129.769 23.255 129.904 23.97 129.904 24.75C129.904 25.53 129.769 26.245 129.499 26.895C129.239 27.545 128.869 28.115 128.389 28.605C127.909 29.085 127.339 29.46 126.679 29.73C126.029 29.99 125.324 30.12 124.564 30.12ZM124.564 28.77C125.114 28.77 125.619 28.675 126.079 28.485C126.549 28.285 126.954 28.005 127.294 27.645C127.644 27.285 127.914 26.86 128.104 26.37C128.304 25.88 128.404 25.34 128.404 24.75C128.404 24.16 128.304 23.62 128.104 23.13C127.914 22.64 127.644 22.215 127.294 21.855C126.954 21.495 126.549 21.22 126.079 21.03C125.619 20.83 125.119 20.73 124.579 20.73C124.039 20.73 123.534 20.83 123.064 21.03C122.604 21.22 122.199 21.495 121.849 21.855C121.509 22.215 121.239 22.64 121.039 23.13C120.849 23.62 120.754 24.16 120.754 24.75C120.754 25.34 120.849 25.88 121.039 26.37C121.239 26.86 121.509 27.285 121.849 27.645C122.199 28.005 122.604 28.285 123.064 28.485C123.534 28.675 124.034 28.77 124.564 28.77ZM134.343 30V20.415L134.718 20.805H130.758V19.5H139.413V20.805H135.453L135.813 20.415V30H134.343ZM145.264 30V19.5H149.779C150.919 19.5 151.814 19.73 152.464 20.19C153.114 20.65 153.439 21.32 153.439 22.2C153.439 23.06 153.129 23.72 152.509 24.18C151.889 24.63 151.074 24.855 150.064 24.855L150.334 24.405C151.504 24.405 152.399 24.64 153.019 25.11C153.649 25.57 153.964 26.245 153.964 27.135C153.964 28.035 153.634 28.74 152.974 29.25C152.324 29.75 151.354 30 150.064 30H145.264ZM146.749 28.815H150.034C150.834 28.815 151.434 28.67 151.834 28.38C152.244 28.08 152.449 27.625 152.449 27.015C152.449 26.405 152.244 25.96 151.834 25.68C151.434 25.4 150.834 25.26 150.034 25.26H146.749V28.815ZM146.749 24.12H149.674C150.404 24.12 150.959 23.975 151.339 23.685C151.729 23.395 151.924 22.97 151.924 22.41C151.924 21.84 151.729 21.41 151.339 21.12C150.959 20.83 150.404 20.685 149.674 20.685H146.749V24.12ZM167.563 30L163.753 24.825L164.968 24.075L169.273 30H167.563ZM160.498 30V19.5H161.968V30H160.498ZM161.518 25.38V24.06H164.923V25.38H161.518ZM165.103 24.915L163.723 24.705L167.488 19.5H169.093L165.103 24.915ZM175.506 30.12C174.706 30.12 173.961 29.985 173.271 29.715C172.591 29.445 172.001 29.07 171.501 28.59C171.001 28.1 170.611 27.53 170.331 26.88C170.051 26.23 169.911 25.52 169.911 24.75C169.911 23.98 170.051 23.27 170.331 22.62C170.611 21.97 171.001 21.405 171.501 20.925C172.001 20.435 172.591 20.055 173.271 19.785C173.951 19.515 174.696 19.38 175.506 19.38C176.306 19.38 177.041 19.515 177.711 19.785C178.391 20.045 178.981 20.42 179.481 20.91C179.991 21.39 180.381 21.955 180.651 22.605C180.931 23.255 181.071 23.97 181.071 24.75C181.071 25.53 180.931 26.245 180.651 26.895C180.381 27.545 179.991 28.115 179.481 28.605C178.981 29.085 178.391 29.46 177.711 29.73C177.041 29.99 176.306 30.12 175.506 30.12ZM175.506 28.785C176.086 28.785 176.621 28.685 177.111 28.485C177.611 28.285 178.041 28.005 178.401 27.645C178.771 27.275 179.056 26.845 179.256 26.355C179.466 25.865 179.571 25.33 179.571 24.75C179.571 24.17 179.466 23.635 179.256 23.145C179.056 22.655 178.771 22.23 178.401 21.87C178.041 21.5 177.611 21.215 177.111 21.015C176.621 20.815 176.086 20.715 175.506 20.715C174.916 20.715 174.371 20.815 173.871 21.015C173.381 21.215 172.951 21.5 172.581 21.87C172.211 22.23 171.921 22.655 171.711 23.145C171.511 23.635 171.411 24.17 171.411 24.75C171.411 25.33 171.511 25.865 171.711 26.355C171.921 26.845 172.211 27.275 172.581 27.645C172.951 28.005 173.381 28.285 173.871 28.485C174.371 28.685 174.916 28.785 175.506 28.785ZM188.191 30.12C187.391 30.12 186.651 29.99 185.971 29.73C185.301 29.46 184.716 29.085 184.216 28.605C183.726 28.115 183.341 27.545 183.061 26.895C182.781 26.245 182.641 25.53 182.641 24.75C182.641 23.97 182.781 23.255 183.061 22.605C183.341 21.955 183.731 21.39 184.231 20.91C184.731 20.42 185.316 20.045 185.986 19.785C186.666 19.515 187.406 19.38 188.206 19.38C189.016 19.38 189.761 19.52 190.441 19.8C191.131 20.07 191.716 20.475 192.196 21.015L191.221 21.96C190.821 21.54 190.371 21.23 189.871 21.03C189.371 20.82 188.836 20.715 188.266 20.715C187.676 20.715 187.126 20.815 186.616 21.015C186.116 21.215 185.681 21.495 185.311 21.855C184.941 22.215 184.651 22.645 184.441 23.145C184.241 23.635 184.141 24.17 184.141 24.75C184.141 25.33 184.241 25.87 184.441 26.37C184.651 26.86 184.941 27.285 185.311 27.645C185.681 28.005 186.116 28.285 186.616 28.485C187.126 28.685 187.676 28.785 188.266 28.785C188.836 28.785 189.371 28.685 189.871 28.485C190.371 28.275 190.821 27.955 191.221 27.525L192.196 28.47C191.716 29.01 191.131 29.42 190.441 29.7C189.761 29.98 189.011 30.12 188.191 30.12ZM194.263 30V19.5H195.493L200.203 27.435H199.543L204.193 19.5H205.423L205.438 30H203.998L203.983 21.765H204.328L200.188 28.725H199.498L195.328 21.765H195.703V30H194.263ZM210.071 24.03H215.471V25.305H210.071V24.03ZM210.206 28.695H216.326V30H208.706V19.5H216.116V20.805H210.206V28.695Z" fill="#2A322B"/>
<g clip-path="url(#clip0_381_61)">
<path d="M70.3638 40.1503C65.309 29.8034 58.7969 21.2345 51.0085 14.6818C42.171 7.24639 31.5695 2.31288 19.4984 0.0181464C18.9739 -0.0819941 18.4631 0.242306 18.3529 0.744884L17.2249 5.89005C16.9732 7.03823 18.8733 7.47667 19.1366 6.27624L20.0646 2.04358C31.4027 4.34756 41.3763 9.07142 49.7208 16.0921C57.0839 22.2871 63.2838 30.3492 68.1592 40.0662L29.3171 55.8208L31.2943 50.9994C31.7422 49.9076 29.9447 49.1709 29.4766 50.3125L27.1246 56.0478L11.1516 44.2181L23.8844 28.3059L26.8585 33.7257C28.1908 36.1539 32.0056 35.8726 32.9446 33.2897L37.2016 21.5805C39.2922 21.7615 41.2375 22.7933 42.4995 24.4225L47.0098 30.2461C47.7113 31.1517 48.8318 31.6923 50.0074 31.6923H53.0557C53.2642 33.5336 54.0795 35.2903 55.3739 36.6687C53.9581 39.4594 50.957 41.3158 47.6552 41.3158H35.7099C34.1646 41.3158 32.8004 42.2077 32.2343 43.588L31.2788 45.918C30.835 47 32.6168 47.775 33.0966 46.6048L34.052 44.2749C34.3219 43.6165 34.9727 43.1911 35.7097 43.1911H47.655C49.946 43.1911 52.1268 42.495 53.9616 41.1779C56.673 39.2316 57.5904 36.4801 58.4988 33.5218C59.0584 31.6992 57.5921 29.817 55.6126 29.817H50.0074C49.4466 29.817 48.9121 29.5591 48.5775 29.1271L44.067 23.3036C42.4805 21.2553 40.0393 19.9513 37.413 19.7136C37.0723 17.9933 35.2896 16.8477 33.5127 17.1737L23.6294 18.9902C21.4671 19.3876 20.2848 21.7464 21.3109 23.6163L22.8822 26.4799L11.6228 40.5509L18.1558 10.7501C18.4076 9.60188 16.5073 9.16356 16.2441 10.3639L9.14179 42.7616C6.05766 41.0347 3.23661 45.4474 6.15182 47.388L5.08141 48.7257C4.33033 49.6643 5.8709 50.8175 6.6307 49.8681L7.69864 48.5335L24.9628 61.3195L24.3848 62.729C23.9409 63.811 25.7226 64.586 26.2025 63.4159L26.5731 62.512C29.4704 64.6405 32.9698 60.377 30.0449 58.2105L29.4786 57.7912L69.8597 41.4123C70.4006 41.129 70.5687 40.7083 70.3638 40.1503ZM56.4578 32.0986C56.9561 32.7382 56.343 33.9104 56.1429 34.5619C55.5561 33.6987 55.1712 32.7151 55.0239 31.6923C55.5105 31.6125 56.1453 31.6974 56.4578 32.0986ZM23.0169 21.5557C23.2076 21.1753 23.5648 20.9115 23.9968 20.832L33.8801 19.0155C34.9037 18.8273 35.7793 19.8012 35.436 20.7457L31.1002 32.6718C30.716 33.7284 29.1361 33.8527 28.587 32.8518L23.0396 22.7423C22.8666 22.369 22.8269 21.9348 23.0169 21.5557ZM29.0108 60.881C28.6922 61.2774 28.174 61.2436 27.7755 61.0341C27.4332 60.7807 7.17847 45.7797 7.17847 45.7797C6.27672 45.1119 7.35338 43.7734 8.25449 44.441L28.8515 59.6955C29.2456 60.0484 29.2987 60.4436 29.0108 60.881Z" fill="#2A322B"/>
<path d="M38.8483 28.5295C37.4261 29.0454 36.8679 30.4885 36.8089 30.6514C36.4123 31.7467 38.2192 32.4683 38.6518 31.2736C38.9573 30.4696 40.0627 29.7666 40.8724 30.445C42.0363 31.5623 43.4633 30.1073 42.2045 29.0734C41.7204 28.6757 40.4079 27.9638 38.8483 28.5295Z" fill="#2A322B"/>
</g>
<defs>
<clipPath id="clip0_381_61">
<rect width="71" height="72" fill="white"/>
</clipPath>
</defs>
</svg>
