<svg width="62" height="67" viewBox="0 0 62 67" fill="none" xmlns="http://www.w3.org/2000/svg">
<g clip-path="url(#clip0_234_91)">
<path d="M31.0001 35.8715C32.0206 35.8715 32.8479 34.9775 32.8479 33.8747C32.8479 32.7719 32.0206 31.8779 31.0001 31.8779C29.9796 31.8779 29.1523 32.7719 29.1523 33.8747C29.1523 34.9775 29.9796 35.8715 31.0001 35.8715Z" fill="#322929"/>
<path d="M23.2931 43.9464H38.7065V59.2746H46.4276V34.2161L30.8995 20.9683L15.4346 34.4783V59.2746H23.2932V43.9464H23.2931ZM30.9998 27.9521C34.0219 27.9521 36.4804 30.6089 36.4804 33.8747C36.4804 37.1404 34.0219 39.7972 30.9998 39.7972C27.9778 39.7972 25.5193 37.1404 25.5193 33.8747C25.5193 30.6089 27.9778 27.9521 30.9998 27.9521Z" fill="#322929"/>
<path d="M26.9263 47.8722H35.0741V59.2746H26.9263V47.8722Z" fill="#322929"/>
<path d="M12.0012 56.1367C12.0012 52.5553 9.31465 49.6521 6.00056 49.6521C2.68659 49.6522 0 52.5555 0 56.1367V59.2746H12.0012V56.1367Z" fill="#322929"/>
<path d="M61.9999 56.1367C61.9999 52.5553 59.3133 49.6521 55.9992 49.6521C52.6851 49.6521 49.9985 52.5553 49.9985 56.1367V59.2746H61.9999V56.1367Z" fill="#322929"/>
<path d="M0 63.0695H62V67H0V63.0695Z" fill="#322929"/>
<path d="M30.8468 11.0865L5.92529 32.858L8.209 35.911L30.8738 16.1111L53.7485 35.6266L55.9996 32.5452L47.7253 25.4862V10.8177L38.5955 10.8342L38.584 17.6873L30.8468 11.0865Z" fill="#322929"/>
<path d="M9.02896 16.2543L16.6214 7.8865C17.4245 7.0015 17.8606 5.83149 17.8493 4.59186C17.838 3.35236 17.3808 2.19189 16.5617 1.3239C15.7561 0.470178 14.6885 0 13.5559 0C12.3908 0 11.3016 0.493209 10.4891 1.38868L8.90956 3.1295L7.29865 1.42257C6.49289 0.568715 5.42533 0.0984062 4.29274 0.0984062C3.1277 0.0984062 2.03846 0.591615 1.22604 1.48709C-0.431732 3.31414 -0.40497 6.25796 1.28574 8.04955L9.02896 16.2543Z" fill="#322929"/>
</g>
<defs>
<clipPath id="clip0_234_91">
<rect width="62" height="67" fill="white"/>
</clipPath>
</defs>
</svg>
