<svg width="71" height="72" viewBox="0 0 71 72" fill="none" xmlns="http://www.w3.org/2000/svg">
<g clip-path="url(#clip0_176_179)">
<path d="M70.3638 40.1503C65.309 29.8034 58.7969 21.2345 51.0085 14.6818C42.171 7.24637 31.5695 2.31286 19.4984 0.0181311C18.9739 -0.0820093 18.4631 0.242291 18.3529 0.744868L17.2249 5.89004C16.9732 7.03821 18.8733 7.47666 19.1366 6.27622L20.0646 2.04357C31.4027 4.34755 41.3763 9.0714 49.7208 16.0921C57.0839 22.2871 63.2838 30.3492 68.1592 40.0662L29.3171 55.8207L31.2943 50.9994C31.7422 49.9076 29.9447 49.1708 29.4766 50.3125L27.1246 56.0478L11.1516 44.2181L23.8844 28.3059L26.8585 33.7257C28.1908 36.1538 32.0056 35.8725 32.9446 33.2896L37.2016 21.5805C39.2922 21.7615 41.2375 22.7933 42.4995 24.4225L47.0098 30.246C47.7113 31.1517 48.8318 31.6923 50.0074 31.6923H53.0557C53.2642 33.5336 54.0795 35.2903 55.3739 36.6687C53.9581 39.4593 50.957 41.3158 47.6552 41.3158H35.7099C34.1646 41.3158 32.8004 42.2076 32.2343 43.588L31.2788 45.918C30.835 47 32.6168 47.775 33.0966 46.6048L34.052 44.2748C34.3219 43.6165 34.9727 43.191 35.7097 43.191H47.655C49.946 43.191 52.1268 42.4949 53.9616 41.1779C56.673 39.2316 57.5904 36.4801 58.4988 33.5218C59.0584 31.6991 57.5921 29.817 55.6126 29.817H50.0074C49.4466 29.817 48.9121 29.5591 48.5775 29.1271L44.067 23.3036C42.4805 21.2553 40.0393 19.9513 37.413 19.7135C37.0723 17.9933 35.2896 16.8477 33.5127 17.1737L23.6294 18.9902C21.4671 19.3876 20.2848 21.7464 21.3109 23.6163L22.8822 26.4798L11.6228 40.5509L18.1558 10.75C18.4076 9.60186 16.5073 9.16354 16.2441 10.3639L9.14179 42.7616C6.05766 41.0347 3.23661 45.4474 6.15182 47.3879L5.08141 48.7257C4.33033 49.6643 5.8709 50.8175 6.6307 49.8681L7.69864 48.5335L24.9628 61.3195L24.3848 62.7289C23.9409 63.811 25.7226 64.586 26.2025 63.4159L26.5731 62.512C29.4704 64.6405 32.9698 60.3769 30.0449 58.2105L29.4786 57.7912L69.8597 41.4123C70.4006 41.129 70.5687 40.7083 70.3638 40.1503ZM56.4578 32.0986C56.9561 32.7382 56.343 33.9104 56.1429 34.5618C55.5561 33.6987 55.1712 32.7151 55.0239 31.6923C55.5105 31.6125 56.1453 31.6974 56.4578 32.0986ZM23.0169 21.5557C23.2076 21.1753 23.5648 20.9115 23.9968 20.832L33.8801 19.0154C34.9037 18.8273 35.7793 19.8012 35.436 20.7457L31.1002 32.6718C30.716 33.7283 29.1361 33.8527 28.587 32.8518L23.0396 22.7423C22.8666 22.369 22.8269 21.9348 23.0169 21.5557ZM29.0108 60.881C28.6922 61.2773 28.174 61.2436 27.7755 61.034C27.4332 60.7806 7.17847 45.7797 7.17847 45.7797C6.27672 45.1118 7.35338 43.7734 8.25449 44.441L28.8515 59.6955C29.2456 60.0484 29.2987 60.4436 29.0108 60.881Z" fill="#262121"/>
<path d="M38.8483 28.5297C37.4261 29.0455 36.8679 30.4886 36.8089 30.6515C36.4123 31.7468 38.2192 32.4684 38.6518 31.2737C38.9573 30.4697 40.0627 29.7667 40.8724 30.4451C42.0363 31.5624 43.4633 30.1074 42.2045 29.0735C41.7204 28.6758 40.4079 27.9639 38.8483 28.5297Z" fill="#262121"/>
</g>
<defs>
<clipPath id="clip0_176_179">
<rect width="71" height="72" fill="white"/>
</clipPath>
</defs>
</svg>
