<svg width="85" height="77" viewBox="0 0 85 77" fill="none" xmlns="http://www.w3.org/2000/svg">
<g clip-path="url(#clip0_234_34)">
<path d="M84.4251 29.453C83.8435 28.6144 82.8901 28.0486 81.8093 27.9007C80.2513 27.687 78.7588 28.3678 78.0017 29.5617C77.604 29.3146 77.1488 29.1433 76.664 29.0651C74.9861 28.7952 73.3257 29.6987 72.8016 31.1673L72.2193 32.798C71.9053 32.6086 71.5582 32.4632 71.1875 32.3767C69.4274 31.9654 67.6266 32.8754 67.0877 34.4478L66.7064 35.5601C66.2917 35.3057 65.8174 35.1319 65.3115 35.0567C63.5941 34.8019 61.9577 35.7041 61.4191 37.2026L57.4756 48.173C56.4561 48.5863 54.2422 49.6103 52.059 51.4539C51.5573 51.8776 51.5297 52.5897 51.9974 53.0443C52.4652 53.499 53.251 53.5239 53.7532 53.1003C56.2753 50.9707 58.8852 50.0759 58.9089 50.0679C58.9141 50.0663 58.9187 50.0639 58.9237 50.0622C58.9488 50.0535 58.973 50.0436 58.9976 50.0335C59.0114 50.0278 59.0255 50.0225 59.0389 50.0164C59.0643 50.0048 59.0887 49.9918 59.1131 49.9788C59.1251 49.9724 59.1374 49.9666 59.1488 49.9598C59.1742 49.9451 59.1986 49.9288 59.223 49.9123C59.2328 49.9057 59.2431 49.8998 59.2528 49.8929C59.2856 49.869 59.3178 49.8437 59.3487 49.8165L66.4031 43.5744C66.4036 43.5739 66.4042 43.5735 66.4047 43.573L67.853 42.2912C67.8612 42.284 67.8701 42.2779 67.8784 42.2708C67.8994 42.2533 67.9199 42.236 67.9417 42.2203C67.9493 42.2147 67.9576 42.21 67.9654 42.2046C67.9893 42.1882 68.0132 42.172 68.0383 42.1574C68.0431 42.1545 68.0481 42.1523 68.0529 42.1496C68.0816 42.1333 68.1107 42.1178 68.1406 42.1042C68.1421 42.1034 68.1437 42.103 68.1452 42.1022C68.2819 42.0398 68.4288 42.0028 68.5779 41.9915C68.579 41.9914 68.5802 41.9915 68.5814 41.9914C68.8813 41.9694 69.1883 42.0506 69.432 42.2344C69.4323 42.2345 69.4328 42.235 69.4328 42.235C69.4634 42.2582 69.4929 42.2828 69.5213 42.3091C69.9355 42.6932 69.9699 43.2999 69.601 43.7206L60.1536 54.4926C59.7636 54.9374 59.8005 55.576 60.2401 55.9811C60.2691 56.0079 60.2992 56.0327 60.3304 56.0563C60.3403 56.0639 60.351 56.0705 60.3611 56.0777C60.3828 56.0932 60.4044 56.1084 60.427 56.1222C60.4394 56.1299 60.4522 56.1367 60.4647 56.1439C60.4859 56.1559 60.5068 56.1679 60.5286 56.1786C60.5424 56.1855 60.5565 56.1917 60.5704 56.198C60.5918 56.2076 60.6131 56.2171 60.6348 56.2255C60.6495 56.2312 60.6642 56.2365 60.679 56.2416C60.7009 56.2493 60.7228 56.2565 60.7451 56.263C60.7602 56.2673 60.7753 56.2716 60.7904 56.2753C60.813 56.281 60.8357 56.2861 60.8585 56.2907C60.8737 56.2937 60.889 56.2967 60.9041 56.2992C60.9275 56.3031 60.9509 56.306 60.9745 56.3085C60.9896 56.3102 61.0046 56.312 61.0195 56.3132C61.0441 56.3152 61.0686 56.3159 61.0932 56.3165C61.104 56.3168 61.115 56.318 61.1256 56.318C61.1279 56.318 61.1302 56.3176 61.1326 56.3174C61.1912 56.3171 61.2498 56.3125 61.308 56.3046C61.3175 56.3034 61.3268 56.3022 61.3361 56.3007C61.3934 56.2917 61.45 56.2792 61.5059 56.263C61.5151 56.2603 61.524 56.2574 61.5332 56.2546C61.5896 56.2368 61.6449 56.2158 61.6988 56.1903C61.7052 56.1873 61.7115 56.1839 61.7178 56.1807C61.7739 56.1529 61.8288 56.1221 61.8811 56.0858L66.9969 52.5342C69.0256 51.1258 70.8236 49.5115 72.3657 47.7255C74.6353 45.0969 76.3504 42.0962 77.4278 38.8314L80.0461 30.8981C80.2416 30.3663 80.825 30.0425 81.4378 30.1258C81.8081 30.1765 82.1221 30.3629 82.3213 30.6503C82.5207 30.9377 82.5697 31.2747 82.4594 31.5992L78.5348 43.1367C78.3326 43.7311 78.1316 44.3375 77.9282 44.9514C76.2229 50.0971 74.2898 55.9297 69.94 59.1476L60.3398 66.2491C60.051 66.4628 59.8835 66.7828 59.8835 67.1206V74.5884H48.0577V64.0779C48.1159 63.6102 48.644 59.8304 50.8195 56.4284C51.1633 55.8906 50.9609 55.2021 50.3671 54.8907C49.7743 54.5794 49.0136 54.7625 48.6696 55.3003C46.0896 59.3353 45.5986 63.7252 45.5789 63.9102C45.5752 63.946 45.5732 63.9819 45.5732 64.0179V75.7135C45.5732 76.3349 46.1292 76.8387 46.8154 76.8387H61.1254C61.8116 76.8387 62.3675 76.3349 62.3675 75.7135V67.6542L71.5114 60.8902C76.4505 57.2363 78.4998 51.0531 80.3075 45.598C80.5094 44.9894 80.7085 44.3881 80.9088 43.7991L84.8336 32.2615C85.1555 31.3153 85.0064 30.2917 84.4251 29.453ZM65.7138 38.456L64.4432 42.1624L61.2254 45.0097L63.7815 37.8994C63.92 37.5142 64.3086 37.265 64.7417 37.265C64.797 37.265 64.8531 37.2691 64.9096 37.2775C65.306 37.3365 65.5172 37.5681 65.608 37.701C65.6983 37.8338 65.8326 38.1087 65.7138 38.456ZM71.212 35.6181L69.7768 39.638L69.6953 39.866C69.4929 39.8133 69.2841 39.7781 69.0718 39.7576C69.0713 39.7576 69.0708 39.7575 69.0701 39.7575C68.9544 39.7463 68.8377 39.7382 68.7198 39.737C68.705 39.7369 68.6903 39.7369 68.6756 39.7369C68.3933 39.7369 68.1155 39.7657 67.8467 39.8218L68.0861 39.1236C68.0863 39.1231 68.0863 39.1227 68.0866 39.1222L69.4601 35.1151C69.6055 34.6905 70.0918 34.4448 70.5671 34.5559C70.8148 34.6138 71.0195 34.7576 71.1428 34.9609C71.2662 35.1641 71.2907 35.3975 71.212 35.6181ZM76.968 32.368L75.0477 38.1868C74.6359 39.434 74.1211 40.6381 73.5122 41.7941C73.4888 41.8383 73.4674 41.8834 73.4438 41.9274C73.438 41.9381 73.4318 41.9487 73.426 41.9592C73.0467 42.6656 72.632 43.3536 72.1819 44.0209C72.2035 43.9561 72.2221 43.8906 72.2393 43.8251C72.2445 43.8055 72.2488 43.786 72.2535 43.7663C72.2647 43.7197 72.275 43.6729 72.284 43.626C72.2883 43.6031 72.2925 43.5802 72.2963 43.5572C72.3039 43.5111 72.3104 43.4647 72.316 43.4184C72.3185 43.3974 72.3215 43.3765 72.3235 43.3554C72.3298 43.2922 72.3343 43.2288 72.3366 43.1655C72.3368 43.1617 72.3371 43.1581 72.3373 43.1543C72.3394 43.0885 72.3388 43.0227 72.3366 42.9569C72.336 42.9349 72.3343 42.9133 72.333 42.8913C72.3305 42.846 72.3272 42.8008 72.3227 42.7556C72.3202 42.7311 72.3175 42.7069 72.3144 42.6826C72.3089 42.6379 72.3021 42.5934 72.2945 42.5489C72.2906 42.5266 72.2873 42.5045 72.283 42.4824C72.2714 42.4221 72.2581 42.3621 72.243 42.3024C72.2417 42.297 72.2407 42.2915 72.2392 42.2861C72.2222 42.2218 72.203 42.158 72.1819 42.0945C72.1749 42.0735 72.167 42.0527 72.1595 42.0317C72.1439 41.9882 72.1276 41.9449 72.1102 41.9019C72.1007 41.8787 72.0911 41.856 72.0811 41.8331C72.0625 41.7907 72.0431 41.7486 72.0225 41.7068C72.0124 41.6862 72.0028 41.6656 71.9921 41.645C71.9629 41.5888 71.9324 41.533 71.8995 41.4779C71.8967 41.4731 71.8942 41.4682 71.8914 41.4635C71.8597 41.411 71.8265 41.3591 71.7914 41.308L75.1647 31.8595C75.3091 31.4551 75.766 31.2058 76.2285 31.2807C76.5909 31.339 76.7842 31.5524 76.867 31.6743C76.9502 31.7962 77.0734 32.0486 76.968 32.368Z" fill="#342828"/>
<path d="M39.4211 63.9103C39.3974 63.6859 38.7986 58.3606 35.449 54.05C32.702 50.5144 28.9502 48.749 27.5246 48.1725L23.5812 37.2026C23.0425 35.7043 21.4058 34.8019 19.6888 35.0567C19.1832 35.1319 18.7085 35.3057 18.294 35.5599L17.9126 34.4477C17.3738 32.8753 15.5728 31.9659 13.8129 32.3766C13.4423 32.4632 13.0952 32.6085 12.7811 32.7978L12.1989 31.1671C11.6749 29.6984 10.0153 28.795 8.33653 29.065C7.85177 29.1432 7.39688 29.3145 6.99878 29.5616C6.24224 28.3678 4.75109 27.6869 3.19104 27.9005C2.11028 28.0485 1.15669 28.6144 0.575302 29.4528C-0.00641663 30.2914 -0.155333 31.3151 0.166738 32.2615L4.09151 43.799C4.29189 44.3884 4.49111 44.9895 4.69282 45.5985C5.96666 49.4423 7.41033 53.799 9.9263 57.251C10.304 57.7696 11.0746 57.9127 11.6472 57.5702C12.2198 57.2277 12.3774 56.5298 11.9995 56.0112C9.68491 52.835 8.35679 48.8272 7.07249 44.9512C6.86895 44.3371 6.66807 43.7305 6.4657 43.1361L2.54093 31.5986C2.43069 31.2741 2.47967 30.9372 2.67905 30.6496C2.87827 30.3622 3.19237 30.1761 3.56259 30.1252C4.17386 30.0412 4.7589 30.3655 4.9543 30.8975L7.57253 38.8307C8.25103 40.8869 9.18255 42.8383 10.346 44.6582C12.2852 47.6911 14.8694 50.358 18.0033 52.5337L23.1191 56.0853C23.1712 56.1216 23.2263 56.1526 23.2826 56.1804C23.2889 56.1836 23.2949 56.187 23.3012 56.19C23.3551 56.2156 23.4107 56.2366 23.4674 56.2544C23.4762 56.2571 23.4848 56.26 23.4938 56.2627C23.55 56.2792 23.6071 56.2918 23.6651 56.3007C23.6737 56.3021 23.6823 56.3031 23.691 56.3043C23.7499 56.3123 23.8092 56.3169 23.8686 56.3172C23.8706 56.3172 23.8726 56.3177 23.8748 56.3177C23.8842 56.3177 23.8935 56.3166 23.903 56.3165C23.9295 56.3159 23.9559 56.315 23.9825 56.313C23.9961 56.312 24.0097 56.3103 24.0232 56.3088C24.0482 56.3061 24.073 56.303 24.0979 56.2989C24.1122 56.2965 24.1263 56.2938 24.1402 56.2909C24.1643 56.2863 24.1879 56.2809 24.2114 56.2748C24.2259 56.2712 24.2402 56.2673 24.2543 56.2631C24.2773 56.2563 24.3001 56.249 24.3228 56.241C24.3369 56.236 24.3511 56.2311 24.3648 56.2257C24.3874 56.2169 24.4093 56.2073 24.4312 56.1972C24.4449 56.1911 24.4585 56.1852 24.4716 56.1786C24.4938 56.1676 24.5153 56.1554 24.5367 56.1432C24.549 56.1362 24.5616 56.1296 24.5735 56.122C24.5964 56.1079 24.6182 56.0926 24.6403 56.0769C24.6502 56.0699 24.6605 56.0634 24.6703 56.056C24.7015 56.0324 24.7317 56.0076 24.7608 55.9808C25.2004 55.5755 25.2374 54.9371 24.8474 54.4923L15.4 43.7202C15.354 43.6677 15.314 43.6122 15.2806 43.5546C15.2639 43.5258 15.2486 43.4966 15.2351 43.4667C15.1805 43.3477 15.1508 43.2218 15.1457 43.0955C15.134 42.8114 15.2469 42.5248 15.4799 42.3088C15.5081 42.2826 15.5375 42.2581 15.5678 42.2351C15.5717 42.2323 15.576 42.2297 15.5798 42.2269C15.607 42.2069 15.6344 42.1877 15.663 42.1702C15.6633 42.1699 15.6638 42.1697 15.6641 42.1696C16.1178 41.8919 16.7412 41.931 17.148 42.2909L18.5963 43.5727C18.5968 43.5732 18.5975 43.5736 18.598 43.5741L25.6523 49.8162C25.6835 49.8437 25.7159 49.8693 25.7494 49.8933C25.7522 49.8953 25.7552 49.8971 25.758 49.899C25.7894 49.9211 25.8215 49.9417 25.8547 49.9608C25.8595 49.9635 25.8645 49.9658 25.8691 49.9685C25.9003 49.986 25.9319 50.0022 25.9644 50.0169C25.974 50.0213 25.984 50.0249 25.9938 50.0291C26.0212 50.0407 26.0486 50.052 26.0766 50.0615C26.0811 50.063 26.0853 50.0651 26.0897 50.0666C26.1334 50.0813 30.4963 51.5843 33.4183 55.3447C36.2248 58.9566 36.8781 63.5634 36.9433 64.0783V74.5879H25.1176V67.1201C25.1176 66.7822 24.9499 66.4622 24.6612 66.2486L15.061 59.1472C14.5292 58.7539 13.747 58.8256 13.313 59.307C12.8792 59.7883 12.9581 60.4972 13.4893 60.8903L22.6331 67.6543V75.7136C22.6331 76.335 23.1891 76.8388 23.8753 76.8388H38.1853C38.8714 76.8388 39.4274 76.335 39.4274 75.7136V64.018C39.4268 63.9821 39.4248 63.9461 39.4211 63.9103ZM13.1085 41.4641C13.1067 41.4671 13.1052 41.4702 13.1033 41.4732C13.0693 41.5301 13.0378 41.5877 13.0075 41.646C12.9974 41.6656 12.9881 41.6853 12.9785 41.705C12.9574 41.7479 12.9373 41.7912 12.9184 41.8346C12.9088 41.8566 12.8995 41.8785 12.8905 41.9008C12.8724 41.945 12.8555 41.9898 12.8397 42.0347C12.8327 42.0544 12.8253 42.0738 12.8186 42.0936C12.7972 42.1577 12.7776 42.2222 12.7605 42.2873C12.7599 42.2897 12.7595 42.292 12.7589 42.2944C12.7426 42.3572 12.7288 42.4204 12.7167 42.4839C12.7127 42.5048 12.7095 42.5255 12.7059 42.5464C12.6981 42.5923 12.6911 42.6383 12.6853 42.6845C12.6823 42.7078 12.6797 42.731 12.6773 42.7544C12.6727 42.8007 12.6692 42.8472 12.6667 42.8937C12.6656 42.9146 12.6641 42.9353 12.6632 42.9562C12.6611 43.0229 12.6604 43.0893 12.6626 43.156C12.6626 43.1573 12.6627 43.1585 12.6629 43.1599C12.6651 43.2253 12.67 43.2906 12.6763 43.3557C12.6785 43.3766 12.6813 43.3973 12.6838 43.4182C12.6893 43.4646 12.6958 43.511 12.7036 43.5572C12.7074 43.5804 12.7115 43.6032 12.716 43.6262C12.7248 43.6727 12.7351 43.719 12.7461 43.7652C12.7509 43.7855 12.7554 43.8057 12.7607 43.8258C12.7778 43.8912 12.7964 43.9565 12.818 44.021C11.752 42.44 10.8812 40.7452 10.222 38.9583C10.1277 38.703 10.038 38.4459 9.95253 38.1869L8.03222 32.3681C7.92681 32.0487 8.04999 31.7964 8.133 31.6747C8.21584 31.5527 8.40908 31.3395 8.77149 31.2811C8.82628 31.2722 8.88106 31.268 8.93535 31.268C9.33777 31.268 9.70799 31.5035 9.83532 31.8601L13.2088 41.3084C13.1736 41.3594 13.14 41.4114 13.1085 41.4641ZM17.0543 39.8041C17.0241 39.7985 16.9942 39.7926 16.9639 39.7878C16.8729 39.7734 16.7812 39.7622 16.6886 39.7543C16.6523 39.7511 16.6157 39.7489 16.5794 39.7466C16.4801 39.7404 16.3807 39.7364 16.2802 39.7371C16.1713 39.7383 16.0636 39.7453 15.9565 39.7549C15.9284 39.7574 15.9007 39.7603 15.8728 39.7635C15.7767 39.7741 15.6816 39.7875 15.5873 39.8048C15.5761 39.8068 15.5649 39.8081 15.5537 39.8104C15.4697 39.8266 15.3866 39.845 15.3047 39.8663L15.2856 39.8132L13.788 35.6184C13.7091 35.3976 13.7339 35.1644 13.8572 34.961C13.9804 34.7579 14.1849 34.6141 14.433 34.556C14.5102 34.538 14.5875 34.5293 14.6637 34.5293C15.057 34.5293 15.4183 34.7594 15.54 35.1152L16.9131 39.121C16.9134 39.1219 16.9136 39.1228 16.9139 39.1235L17.1533 39.8217C17.1204 39.8149 17.0874 39.8101 17.0543 39.8041ZM20.5569 42.1623L19.2864 38.456C19.1676 38.1086 19.3019 37.8339 19.3923 37.701C19.4832 37.5682 19.6943 37.3364 20.0908 37.2776C20.588 37.2028 21.0628 37.4652 21.219 37.8995L23.7748 45.0098L20.5569 42.1623Z" fill="#342828"/>
<path d="M42.435 0.161011C29.7593 0.161011 19.4468 9.50283 19.4468 20.9856C19.4468 32.4684 29.7593 41.81 42.435 41.81C55.1106 41.81 65.4231 32.4682 65.4231 20.9856C65.4231 9.50298 55.1106 0.161011 42.435 0.161011ZM42.435 39.5594C31.1291 39.5594 21.9312 31.2272 21.9312 20.9854C21.9312 10.7435 31.1291 2.41146 42.435 2.41146C53.7408 2.41146 62.9389 10.7437 62.9389 20.9854C62.9389 31.2274 53.741 39.5594 42.435 39.5594Z" fill="#342828"/>
<path d="M42.4345 5.72192C38.5295 5.72192 34.7231 6.95979 31.7164 9.20783C31.1873 9.60351 31.1123 10.3126 31.5489 10.792C31.9855 11.2713 32.7684 11.339 33.2975 10.9438C35.8603 9.02781 39.1051 7.97267 42.4345 7.97267C50.3555 7.97267 56.7995 13.8102 56.7995 20.9858C56.7995 28.1614 50.3555 33.999 42.4345 33.999C34.5138 33.999 28.0695 28.1614 28.0695 20.9858C28.0695 18.5444 28.8198 16.165 30.2394 14.1053C30.6026 13.578 30.4253 12.884 29.8434 12.5549C29.2614 12.226 28.4952 12.3863 28.132 12.9136C26.466 15.3313 25.5854 18.1225 25.5854 20.986C25.5854 29.4023 33.144 36.2496 42.4347 36.2496C51.7254 36.2496 59.2841 29.4024 59.2841 20.986C59.2841 12.5695 51.7254 5.72192 42.4345 5.72192Z" fill="#342828"/>
<path d="M46.8744 21.4535C45.9555 20.5316 44.5625 19.993 42.734 19.8526C40.7617 19.701 39.9542 18.8648 40.1156 17.141C40.1742 16.5127 40.4591 15.9696 40.9176 15.6116C41.4525 15.1939 42.2429 15.0123 43.1987 15.0855C44.728 15.2029 45.28 17.0146 45.2837 17.0266C45.453 17.6289 46.1295 17.993 46.7937 17.8394C47.4586 17.6862 47.8604 17.0737 47.6912 16.4715C47.6671 16.3862 47.4404 15.6158 46.8532 14.8082C46.0516 13.7061 44.9576 13.0405 43.677 12.8711V11.2405C43.677 10.619 43.121 10.1152 42.4348 10.1152C41.7487 10.1152 41.1927 10.619 41.1927 11.2405V13.0062C40.343 13.2173 39.7216 13.5745 39.2958 13.907C38.342 14.6516 37.7539 15.7326 37.64 16.9511C37.3626 19.916 39.1884 21.8389 42.524 22.0952C43.6876 22.1847 44.5545 22.4843 45.0305 22.9618C45.4067 23.3391 45.5669 23.8542 45.5071 24.4927C45.482 24.7606 45.1852 27.1023 42.3925 26.8877C40.3063 26.7275 39.2528 24.8227 39.2301 24.781C38.9364 24.2225 38.1991 23.9834 37.5805 24.2464C36.9596 24.5106 36.6927 25.1808 36.9844 25.7432C37.0436 25.8577 38.3412 28.2964 41.1929 28.9753V30.7305C41.1929 31.3519 41.7489 31.8557 42.435 31.8557C43.1211 31.8557 43.6771 31.3519 43.6771 30.7305V29.0825C46.2751 28.6973 47.7912 26.7307 47.9827 24.6828C48.1011 23.4164 47.7178 22.2997 46.8744 21.4535Z" fill="#342828"/>
</g>
<defs>
<clipPath id="clip0_234_34">
<rect width="85" height="77" fill="white"/>
</clipPath>
</defs>
</svg>
