<svg width="90" height="102" viewBox="0 0 90 102" fill="none" xmlns="http://www.w3.org/2000/svg">
<path d="M66.0938 41.4328C62.2169 41.4328 59.0625 37.1434 59.0625 31.8703C59.0625 26.5973 62.2169 22.3078 66.0938 22.3078C69.9706 22.3078 73.125 26.5973 73.125 31.8703C73.125 37.1434 69.9706 41.4328 66.0938 41.4328ZM66.0938 25.4953C63.7674 25.4953 61.875 28.3544 61.875 31.8703C61.875 35.3862 63.7674 38.2453 66.0938 38.2453C68.4201 38.2453 70.3125 35.3862 70.3125 31.8703C70.3125 28.3544 68.4201 25.4953 66.0938 25.4953Z" fill="#272020"/>
<path d="M53.4375 27.0984C49.5607 27.0984 46.4062 22.809 46.4062 17.5359C46.4062 12.2629 49.5607 7.97342 53.4375 7.97342C57.3143 7.97342 60.4688 12.2629 60.4688 17.5359C60.4688 22.809 57.3143 27.0984 53.4375 27.0984ZM53.4375 11.1609C51.1111 11.1609 49.2188 14.02 49.2188 17.5359C49.2188 21.0518 51.1111 23.9109 53.4375 23.9109C55.7639 23.9109 57.6562 21.0518 57.6562 17.5359C57.6562 14.02 55.7639 11.1609 53.4375 11.1609Z" fill="#272020"/>
<path d="M23.9062 41.4328C20.0294 41.4328 16.875 37.1434 16.875 31.8703C16.875 26.5973 20.0294 22.3078 23.9062 22.3078C27.7831 22.3078 30.9375 26.5973 30.9375 31.8703C30.9375 37.1434 27.7831 41.4328 23.9062 41.4328ZM23.9062 25.4953C21.5799 25.4953 19.6875 28.3544 19.6875 31.8703C19.6875 35.3862 21.5799 38.2453 23.9062 38.2453C26.2326 38.2453 28.125 35.3862 28.125 31.8703C28.125 28.3544 26.2326 25.4953 23.9062 25.4953Z" fill="#272020"/>
<path d="M66.0938 101.995C65.909 101.996 65.7261 101.954 65.5555 101.874C65.3848 101.794 65.2297 101.677 65.0991 101.529C64.9685 101.381 64.865 101.205 64.7943 101.012C64.7237 100.818 64.6874 100.611 64.6875 100.402V79.6829C64.6874 79.5365 64.7054 79.3909 64.7411 79.2502L75.4967 36.0883C75.5019 36.0463 75.5092 36.0048 75.5186 35.9638C75.7953 34.6181 75.9358 33.2412 75.9375 31.8595C75.9375 23.9561 71.521 17.5266 66.0938 17.5266C65.6807 17.531 65.2686 17.5742 64.8619 17.6558C64.669 17.6917 64.4717 17.6815 64.2825 17.626C64.0933 17.5705 63.9164 17.4709 63.7631 17.3335C63.6098 17.1961 63.4835 17.024 63.3922 16.8281C63.301 16.6322 63.2468 16.4169 63.2332 16.196C62.7704 8.9042 58.4679 3.19223 53.4375 3.19223C51.9754 3.2575 50.5489 3.72275 49.2798 4.54828C48.0107 5.37381 46.9367 6.53509 46.1494 7.93301C46.013 8.13082 45.8385 8.29079 45.6394 8.40082C45.4402 8.51084 45.2216 8.56803 45 8.56803C44.7784 8.56803 44.5598 8.51084 44.3606 8.40082C44.1615 8.29079 43.987 8.13082 43.8506 7.93301C43.0633 6.53509 41.9893 5.37381 40.7202 4.54828C39.4511 3.72275 38.0246 3.2575 36.5625 3.19223C31.5321 3.19223 27.2296 8.90423 26.7668 16.1959C26.7532 16.4169 26.699 16.6322 26.6077 16.8281C26.5165 17.0239 26.3902 17.1961 26.2369 17.3335C26.0836 17.4709 25.9067 17.5705 25.7175 17.626C25.5283 17.6815 25.331 17.6917 25.1381 17.6558C24.7313 17.5742 24.3193 17.531 23.9062 17.5266C18.479 17.5266 14.0625 23.9561 14.0625 31.8595C14.0642 33.2412 14.2047 34.6181 14.4814 35.9637C14.4896 35.9995 14.4951 36.0353 14.5006 36.0711L25.2658 82.4657C25.2971 82.5977 25.3128 82.7338 25.3125 82.8704V100.402C25.3125 100.824 25.1643 101.23 24.9006 101.529C24.6369 101.827 24.2792 101.995 23.9062 101.995C23.5333 101.995 23.1756 101.827 22.9119 101.529C22.6482 101.23 22.5 100.824 22.5 100.402V83.0759L11.7458 36.7295C11.7298 36.663 11.7178 36.5954 11.7101 36.5271C11.4058 34.9951 11.2515 33.4298 11.25 31.8595C11.25 22.1989 16.9272 14.3391 23.9062 14.3391C23.9763 14.3391 24.0477 14.3407 24.1191 14.3422C25.1986 6.06222 30.3552 0.00473022 36.5625 0.00473022C38.1667 0.0378599 39.7468 0.452774 41.2003 1.22256C42.6539 1.99235 43.9484 3.09982 45 4.47314C46.0516 3.09982 47.3461 1.99235 48.7997 1.22256C50.2532 0.452776 51.8333 0.0378609 53.4375 0.00473022C59.6448 0.00473022 64.8014 6.06222 65.8809 14.3422C65.9523 14.3407 66.0237 14.3391 66.0938 14.3391C73.0728 14.3391 78.75 22.1989 78.75 31.8595C78.7486 33.4357 78.5929 35.0069 78.2858 36.5443C78.279 36.5972 78.2707 36.6501 78.2597 36.703L78.2185 36.8944C78.2171 36.9007 78.1842 37.0532 78.1828 37.061L67.5 79.9039V100.402C67.5001 100.611 67.4638 100.818 67.3932 101.012C67.3225 101.205 67.219 101.381 67.0884 101.529C66.9578 101.677 66.8027 101.794 66.632 101.874C66.4614 101.954 66.2785 101.996 66.0938 101.995Z" fill="#272020"/>
<path d="M36.5625 27.0984C32.6857 27.0984 29.5312 22.809 29.5312 17.5359C29.5312 12.2629 32.6857 7.97342 36.5625 7.97342C40.4393 7.97342 43.5938 12.2629 43.5938 17.5359C43.5938 22.809 40.4393 27.0984 36.5625 27.0984ZM36.5625 11.1609C34.2361 11.1609 32.3438 14.02 32.3438 17.5359C32.3438 21.0518 34.2361 23.9109 36.5625 23.9109C38.8889 23.9109 40.7812 21.0518 40.7812 17.5359C40.7812 14.02 38.8889 11.1609 36.5625 11.1609Z" fill="#272020"/>
<path d="M47.2865 63.7453H42.7133C37.7516 63.7453 33.8638 61.7345 32.0456 58.2295C30.3812 55.0202 30.5913 50.9611 32.6348 46.7993L36.6118 38.7013C38.7762 34.2967 41.7548 31.8703 44.9999 31.8703C48.245 31.8703 51.2237 34.2967 53.388 38.7013L57.3651 46.7993C59.4085 50.9611 59.6186 55.0202 57.9542 58.2295C56.136 61.7345 52.2481 63.7453 47.2865 63.7453ZM44.9999 35.0578C42.8205 35.0578 40.7152 36.9022 39.07 40.2515L35.093 48.3495C33.5522 51.484 33.3324 54.4194 34.4709 56.6139C35.77 59.1213 38.7748 60.5578 42.7134 60.5578H47.2865C51.2251 60.5578 54.2299 59.1213 55.529 56.6139C56.6674 54.4193 56.4477 51.484 54.9069 48.3495L50.9298 40.2515C49.2846 36.9022 47.1793 35.0578 44.9999 35.0578Z" fill="#272020"/>
</svg>
