<svg width="78" height="87" viewBox="0 0 78 87" fill="none" xmlns="http://www.w3.org/2000/svg">
<path d="M26.3802 46.4346C26.1183 48.1746 24.9075 49.4276 23.5862 49.4276C23.4639 49.4276 23.3359 49.4211 23.2078 49.3952C22.4802 49.2653 21.8515 48.7719 21.4499 47.9993C21.0657 47.2656 20.926 46.3567 21.0541 45.4607C21.316 43.7272 22.5268 42.4741 23.8481 42.4741C23.9762 42.4741 24.0984 42.4806 24.2265 42.5001C24.9541 42.6429 25.5827 43.1364 25.9844 43.909C26.3685 44.6361 26.5083 45.5386 26.3802 46.4346Z" fill="black"/>
<path d="M19.9886 45.4607C20.1342 46.4735 19.9362 47.4864 19.4473 48.2525C19.0457 48.8823 18.4694 49.2783 17.8349 49.3952C17.7068 49.4211 17.5788 49.4276 17.4507 49.4276C16.9385 49.4276 16.4262 49.2458 15.978 48.8888C15.297 48.3369 14.8197 47.4409 14.6683 46.4346C14.5228 45.4217 14.7207 44.4089 15.2097 43.6493C15.6113 43.0195 16.1876 42.617 16.8221 42.5001C17.4565 42.3897 18.1201 42.565 18.6789 43.013C19.36 43.5649 19.8373 44.4608 19.9886 45.4607Z" fill="black"/>
<path d="M27.358 58.686C27.096 60.5428 25.8212 62.0167 24.1856 62.3737C23.4987 62.5361 22.7827 62.4906 22.1308 62.2504C21.2693 61.9258 20.3147 61.9258 19.4415 62.2504C19.0399 62.3997 18.6266 62.4776 18.2075 62.4776C17.9339 62.4776 17.6604 62.4452 17.3809 62.3737C15.7977 62.0167 14.5404 60.5883 14.2493 58.8288C13.9874 57.2641 14.4589 55.7124 15.5066 54.6606C16.1644 53.9984 16.6592 53.3037 17.0201 52.544C17.7186 51.0767 19.0748 50.1548 20.5592 50.1548C21.9969 50.1548 23.2892 50.9793 24.0109 52.3558C24.3951 53.0894 24.9656 53.7581 25.6583 54.284C26.9447 55.2709 27.5966 56.9655 27.358 58.686Z" fill="black"/>
<path d="M15.2507 49.8431C15.8445 51.4662 15.309 53.2647 14.0516 53.8425C14.0516 53.8425 14.0516 53.8425 14.0516 53.849C13.7839 53.9659 13.5045 54.0178 13.2309 54.0178C12.1948 54.0178 11.1528 53.2127 10.6872 51.9402C10.367 51.0832 10.3554 50.1288 10.6522 49.3432C10.8909 48.6939 11.3333 48.2005 11.8804 47.9473C13.1378 47.363 14.6454 48.22 15.2507 49.8431Z" fill="black"/>
<path d="M30.3618 51.9403C30.0475 52.7973 29.4596 53.4855 28.7494 53.8102C28.4467 53.9595 28.1324 54.0179 27.8239 54.0179C27.5387 54.0179 27.2593 53.966 26.9973 53.8426C26.3687 53.557 25.8972 52.9596 25.6818 52.187C25.4723 51.4469 25.513 50.6093 25.7982 49.8432C26.3978 48.2201 27.9112 47.3696 29.1685 47.9474C29.7972 48.2396 30.2629 48.8239 30.4841 49.603C30.6878 50.3496 30.647 51.1677 30.3618 51.9403Z" fill="black"/>
<path d="M53.6917 51.1287C54.0643 51.1287 54.4485 51.0573 54.821 50.9144C55.1237 50.7976 55.2867 50.4275 55.1761 50.0899C55.0713 49.7523 54.7337 49.577 54.4368 49.6939C53.261 50.1548 51.9746 49.4666 51.5613 48.1551C51.4565 47.8175 51.1247 47.6422 50.8162 47.7591C50.5135 47.8759 50.3564 48.246 50.4611 48.5836C50.9617 50.1483 52.2831 51.1287 53.6917 51.1287Z" fill="black"/>
<path d="M75.6715 74.0149H73.2383V69.3597C73.2383 68.4573 72.5806 67.7236 71.7656 67.7236H70.0601L67.6328 55.7838C67.2486 53.8945 65.8982 52.5181 64.2334 52.2259C64.2392 52.135 64.2509 52.0312 64.2509 51.9403C64.2509 49.8562 62.8946 48.0772 61.0901 47.6812C60.6827 45.4023 58.8491 43.6753 56.7244 43.6753C55.8862 43.6753 55.083 43.935 54.3786 44.4284C53.651 43.5973 52.6731 43.1364 51.6253 43.1364C50.6649 43.1364 49.7452 43.5389 49.035 44.2661C48.2434 43.5519 47.2539 43.1623 46.2352 43.1623C43.9709 43.1623 42.0965 45.0517 41.8171 47.4929C39.6168 47.3955 37.7774 49.3952 37.7774 51.8494C37.7774 51.9857 37.7949 52.1285 37.8065 52.2649C36.2116 52.6025 34.931 53.9594 34.5585 55.7838L32.137 67.7236H30.4256C29.6107 67.7236 28.953 68.4573 28.953 69.3597V74.0149L7.74744 73.9305V29.4501H33.3012V50.8041C33.3012 51.1676 33.5573 51.4533 33.8833 51.4533C34.2034 51.4533 34.4653 51.1676 34.4653 50.8041V29.4501H44.2677V40.6432C44.2677 40.9938 44.5297 41.2925 44.8498 41.2925C45.1758 41.2925 45.4319 40.9938 45.4319 40.6432V28.8009C45.4319 28.684 45.3853 28.5217 45.3271 28.4178L38.9474 18.3738V12.3358C38.9474 11.9787 38.6855 11.6865 38.3653 11.6865H15.6173C15.2971 11.6865 15.0352 11.9787 15.0352 12.3358V18.3284L6.7346 28.3594C6.71132 28.3788 6.58326 28.5931 6.58326 28.8268V74.0149H2.32818C2.00221 74.0149 1.74609 74.3006 1.74609 74.6641C1.74609 75.0212 2.00221 75.3134 2.32818 75.3134H75.6715C75.9916 75.3134 76.2536 75.0212 76.2536 74.6641C76.2536 74.3006 75.9916 74.0149 75.6715 74.0149ZM38.4527 19.8412L43.7264 28.1516H34.8146L38.4527 19.8412ZM15.8734 19.2309H37.4282L33.5224 28.1516H8.49251L15.8734 19.2309ZM42.2479 48.8563C42.4225 48.9017 42.603 48.8563 42.7368 48.7329C42.8765 48.6096 42.9522 48.4213 42.9522 48.233C42.9522 48.1811 42.9522 48.1421 42.9464 48.1226C42.9464 46.097 44.4191 44.4609 46.2352 44.4609C47.1549 44.4609 48.0048 44.8699 48.6334 45.6165C48.7498 45.7594 48.9186 45.8243 49.0816 45.8178C49.2504 45.8113 49.4076 45.7334 49.5124 45.5776C50.0421 44.8504 50.8104 44.4349 51.6253 44.4349C52.4927 44.4349 53.2901 44.8894 53.814 45.6815C53.913 45.8178 54.0527 45.9217 54.2098 45.9347C54.367 45.9606 54.5242 45.9087 54.6522 45.8048C55.2459 45.2594 55.9619 44.9738 56.7244 44.9738C58.3659 44.9738 59.763 46.3762 59.9783 48.1681C59.8212 48.5382 59.3089 49.551 58.2321 49.9795C57.9294 50.0899 57.7664 50.4665 57.8712 50.8041C57.9585 51.0638 58.1797 51.2391 58.4242 51.2391C58.4882 51.2391 58.5522 51.2196 58.6162 51.2001C59.891 50.6937 60.5953 49.6159 60.9155 48.9797C62.1553 49.2653 63.0867 50.4924 63.0867 51.9403C63.0867 52.0182 63.0809 52.0961 63.075 52.174H45.4319V52.1675C45.4319 50.7781 46.4448 49.6549 47.6904 49.6549C48.0106 49.6549 48.2725 49.3562 48.2725 49.0056C48.2725 48.6485 48.0106 48.3564 47.6904 48.3564C45.8045 48.3564 44.2677 50.0704 44.2677 52.1675L44.2736 52.174H38.9649C38.9533 52.0636 38.9416 51.9532 38.9416 51.8494C38.9416 49.9535 40.4842 48.4473 42.2479 48.8563ZM42.5273 60.3286C42.341 59.8676 42.2828 59.3807 42.341 58.8873C42.4749 57.7576 43.2782 56.8551 44.291 56.6928C45.0186 56.5824 45.7346 56.8486 46.2527 57.4135C46.8639 58.0952 47.5973 58.4718 48.3715 58.4328L53.7325 58.3094C54.4892 58.2965 55.2285 57.9004 55.8106 57.1992C56.3053 56.6019 57.0155 56.3097 57.7431 56.3876C58.7618 56.498 59.5942 57.3745 59.7746 58.4977C59.8503 58.9847 59.8037 59.4781 59.6407 59.9261C59.5301 60.2312 59.5359 60.5494 59.6582 60.861C59.8386 61.283 59.9085 61.7765 59.8561 62.2829C59.7222 63.4256 58.9189 64.3215 57.9119 64.4903C57.1901 64.6072 56.4742 64.354 55.9503 63.7891C55.3798 63.1723 54.7221 62.8218 54.0352 62.7763C53.7442 62.7893 48.4937 62.8997 48.2201 62.9126C47.5449 62.9841 46.8988 63.3671 46.3574 64.0034C45.9092 64.5293 45.3039 64.815 44.6694 64.815C44.5879 64.815 44.5064 64.8085 44.4249 64.802C43.4062 64.6851 42.5739 63.8151 42.3934 62.6919C42.3236 62.1725 42.3759 61.6791 42.5447 61.2441C42.6553 60.9454 42.6495 60.6208 42.5273 60.3286ZM72.0742 74.0149H30.1171V69.3597C30.1171 69.1779 30.2568 69.0221 30.4256 69.0221H71.7656C71.9403 69.0221 72.0742 69.1779 72.0742 69.3597V74.0149Z" fill="black"/>
<path d="M57.1841 33.956C57.5043 33.956 57.7662 33.6638 57.7662 33.3067V31.2551C57.7662 30.898 57.5043 30.6058 57.1841 30.6058C56.864 30.6058 56.6021 30.898 56.6021 31.2551V33.3067C56.6021 33.6638 56.864 33.956 57.1841 33.956Z" fill="black"/>
<path d="M57.1841 39.1889C57.5043 39.1889 57.7662 38.8967 57.7662 38.5396V36.488C57.7662 36.1309 57.5043 35.8387 57.1841 35.8387C56.864 35.8387 56.6021 36.1309 56.6021 36.488V38.5396C56.6021 38.8967 56.864 39.1889 57.1841 39.1889Z" fill="black"/>
<path d="M58.6104 35.5466H60.4498C60.77 35.5466 61.0319 35.2544 61.0319 34.8973C61.0319 34.5402 60.77 34.248 60.4498 34.248H58.6104C58.2903 34.248 58.0283 34.5402 58.0283 34.8973C58.0283 35.2544 58.2903 35.5466 58.6104 35.5466Z" fill="black"/>
<path d="M53.3369 34.8973C53.3369 35.2544 53.5989 35.5466 53.919 35.5466H55.7584C56.0786 35.5466 56.3405 35.2544 56.3405 34.8973C56.3405 34.5402 56.0786 34.248 55.7584 34.248H53.919C53.5989 34.248 53.3369 34.5402 53.3369 34.8973Z" fill="black"/>
<path d="M51.7242 23.7692C52.0443 23.7692 52.3063 23.477 52.3063 23.1199V21.6331C52.3063 21.2761 52.0443 20.9839 51.7242 20.9839C51.404 20.9839 51.1421 21.2761 51.1421 21.6331V23.1199C51.1421 23.477 51.404 23.7692 51.7242 23.7692Z" fill="black"/>
<path d="M51.7242 24.7755C51.404 24.7755 51.1421 25.0677 51.1421 25.4248V26.9116C51.1421 27.2686 51.404 27.5608 51.7242 27.5608C52.0443 27.5608 52.3063 27.2686 52.3063 26.9116V25.4248C52.3063 25.0677 52.0443 24.7755 51.7242 24.7755Z" fill="black"/>
<path d="M52.7603 24.9183H54.0933C54.4134 24.9183 54.6754 24.6261 54.6754 24.269C54.6754 23.9119 54.4134 23.6198 54.0933 23.6198H52.7603C52.4402 23.6198 52.1782 23.9119 52.1782 24.269C52.1782 24.6261 52.4402 24.9183 52.7603 24.9183Z" fill="black"/>
<path d="M49.355 24.9183H50.688C51.0082 24.9183 51.2701 24.6261 51.2701 24.269C51.2701 23.9119 51.0082 23.6198 50.688 23.6198H49.355C49.0349 23.6198 48.7729 23.9119 48.7729 24.269C48.7729 24.6261 49.0349 24.9183 49.355 24.9183Z" fill="black"/>
<path d="M42.4517 19.2244C42.7719 19.2244 43.0338 18.9323 43.0338 18.5752V17.7052C43.0338 17.3481 42.7719 17.0559 42.4517 17.0559C42.1316 17.0559 41.8696 17.3481 41.8696 17.7052V18.5752C41.8696 18.9387 42.1316 19.2244 42.4517 19.2244Z" fill="black"/>
<path d="M42.4517 16.426C42.7719 16.426 43.0338 16.1338 43.0338 15.7768V12.9785C43.0338 12.6214 42.7719 12.3292 42.4517 12.3292C42.1316 12.3292 41.8696 12.6214 41.8696 12.9785V15.7768C41.8696 16.1338 42.1316 16.426 42.4517 16.426Z" fill="black"/>
<path d="M3.64361 66.6913C3.96376 66.6913 4.2257 66.3991 4.2257 66.042V63.4126C4.2257 63.0555 3.96376 62.7633 3.64361 62.7633C3.32346 62.7633 3.06152 63.0555 3.06152 63.4126V66.042C3.06152 66.3991 3.32346 66.6913 3.64361 66.6913Z" fill="black"/>
<path d="M3.64361 60.9713C3.96376 60.9713 4.2257 60.6792 4.2257 60.3221V44.7335C4.2257 44.3764 3.96376 44.0842 3.64361 44.0842C3.32346 44.0842 3.06152 44.3764 3.06152 44.7335V60.3221C3.06152 60.6792 3.32346 60.9713 3.64361 60.9713Z" fill="black"/>
</svg>
