<svg width="59" height="59" viewBox="0 0 59 59" fill="none" xmlns="http://www.w3.org/2000/svg">
<g clip-path="url(#clip0_220_55)">
<path fill-rule="evenodd" clip-rule="evenodd" d="M29.5 0C45.793 0 59 13.207 59 29.5C59 45.793 45.793 59 29.5 59C13.207 59 0 45.793 0 29.5C0 13.207 13.207 0 29.5 0Z" fill="url(#paint0_linear_220_55)"/>
<path d="M42.7775 18.842L38.5772 40.0163C38.5772 40.0163 37.9895 41.4844 36.3751 40.7803L26.6839 33.35L23.1588 31.6469L17.2266 29.6499C17.2266 29.6499 16.3162 29.326 16.2287 28.622C16.1399 27.9167 17.2565 27.5353 17.2565 27.5353L40.8393 18.2843C40.8393 18.2843 42.7775 17.4327 42.7775 18.842Z" fill="#FEFEFE"/>
<path d="M30.4679 36.7091L26.3414 40.4715C26.3414 40.4715 26.0199 40.7158 25.6661 40.5625C25.1464 40.4876 23.6219 35.0532 22.6758 31.8105L23.4674 31.3069L30.4679 36.7091Z" fill="#B5D2E5"/>
<path d="M25.6661 40.5626C25.1038 40.5096 22.965 32.7578 22.6758 31.8106L38.0054 22.0744C38.8028 21.5904 39.2292 21.9719 38.5424 22.6126C38.0688 23.0551 26.5004 33.4538 26.5004 33.4538L25.6661 40.5626Z" fill="#D3E7F2"/>
</g>
<defs>
<linearGradient id="paint0_linear_220_55" x1="7.81635" y1="9.49762" x2="54.643" y2="44.9391" gradientUnits="userSpaceOnUse">
<stop stop-color="#28AAE0"/>
<stop offset="1" stop-color="#23B7EC"/>
</linearGradient>
<clipPath id="clip0_220_55">
<rect width="59" height="59" fill="white"/>
</clipPath>
</defs>
</svg>
