<svg width="64" height="68" viewBox="0 0 64 68" fill="none" xmlns="http://www.w3.org/2000/svg">
<g clip-path="url(#clip0_234_81)">
<path d="M17.6556 25.0858V20.2027C16.9297 19.8342 16.1456 19.6323 15.3509 19.6323C13.9112 19.6323 12.5573 20.2267 11.5397 21.3067L10.4589 22.4528L9.37854 21.3067C8.36047 20.2267 7.00755 19.6323 5.56729 19.6323C2.59591 19.6323 0.177734 22.1977 0.177734 25.3499C0.177734 26.8768 0.737975 28.3131 1.75605 29.3931L10.4589 38.6256L19.1622 29.3931C19.3263 29.2184 19.4704 29.0198 19.6285 28.7951C18.4493 28.0287 17.6556 26.6605 17.6556 25.0858Z" fill="#FF4F4F"/>
<path d="M35.1333 61.0785C35.1333 59.271 36.5143 57.8064 38.2177 57.8064H42.425C43.0234 56.8356 43.3582 55.7049 43.3582 54.5301V53.989C43.3582 50.6818 40.8211 47.9902 37.7036 47.9902C36.4877 47.9902 35.2834 48.4168 34.311 49.1912L32.049 50.9896L29.7884 49.1912C28.8145 48.4168 27.6107 47.9902 26.3944 47.9902C23.2774 47.9902 20.7397 50.6818 20.7397 53.989V54.5301C20.7397 55.7049 21.0751 56.8356 21.6745 57.8064H25.8803C27.5841 57.8064 28.9646 59.271 28.9646 61.0785C28.9646 62.1931 28.4375 63.1736 27.6353 63.7647L32.049 68.0002L36.4646 63.7669C35.6619 63.1757 35.1333 62.1942 35.1333 61.0785Z" fill="#FF4F4F"/>
<path d="M58.5317 6.54407C57.0919 6.54407 55.738 7.13841 54.7204 8.21844L53.6396 9.36452L52.5593 8.21844C51.5412 7.13841 50.1883 6.54407 48.748 6.54407C47.0754 6.54407 45.5352 7.36102 44.5161 8.75154C45.7345 10.9931 46.4428 13.5867 46.4428 16.3603V17.9026L53.6396 25.5374L62.3429 16.3049C63.3605 15.2248 63.9207 13.7885 63.9207 12.2617C63.9207 9.10942 61.5026 6.54407 58.5317 6.54407Z" fill="#FF4F4F"/>
<path d="M36.1614 29.4486H34.1052C34.1052 30.6517 33.183 31.63 32.049 31.63C30.9149 31.63 29.9927 30.6517 29.9927 29.4486H27.9365C27.9365 31.8547 29.7809 33.8114 32.049 33.8114C34.317 33.8114 36.1614 31.8547 36.1614 29.4486Z" fill="#352C2C"/>
<path d="M48.7195 43.284L38.218 39.5688V37.3092C40.4901 35.7333 42.1909 33.3139 42.9364 30.4737C45.4826 30.1521 47.471 27.8727 47.471 25.0858V16.3603C47.471 7.33924 40.5529 0 32.0493 0C23.5458 0 16.6277 7.33924 16.6277 16.3603V25.0858C16.6277 27.8727 18.6161 30.1521 21.1628 30.4737C21.9073 33.315 23.6086 35.7333 25.8807 37.3092V39.5688L15.3797 43.2829C12.4374 44.3236 10.459 47.2345 10.459 50.5252V63.2599C10.459 64.4629 11.3812 65.4412 12.5152 65.4412H25.8807C28.1487 65.4412 29.9931 63.4846 29.9931 61.0785C29.9931 58.6724 28.1487 56.7157 25.8807 56.7157H18.6839V50.1716H16.6277V54.5344H12.5152V50.5252C12.5152 48.1745 13.9279 46.0949 16.0303 45.3519L26.6312 41.6032L32.0493 47.3512L37.4675 41.6032L48.0684 45.3519C50.1708 46.0959 51.5835 48.1745 51.5835 50.5252V54.5344H47.471V50.1716H45.4148V56.7157H38.218C35.9499 56.7157 34.1056 58.6724 34.1056 61.0785C34.1056 63.4846 35.9499 65.4412 38.218 65.4412H51.5835C52.7175 65.4412 53.6397 64.4629 53.6397 63.2599V50.5252C53.6397 47.2345 51.6618 44.3236 48.7195 43.284ZM16.6277 56.7157V58.8971H25.8807C27.0147 58.8971 27.9369 59.8754 27.9369 61.0785C27.9369 62.2816 27.0147 63.2599 25.8807 63.2599H12.5152V56.7157H16.6277ZM43.3154 28.1715C43.337 27.8716 43.3586 27.5723 43.3586 27.2672V22.0145C44.5524 22.4661 45.4148 23.666 45.4148 25.0858C45.4148 26.5221 44.5318 27.7326 43.3154 28.1715ZM32.0493 2.18137C39.4188 2.18137 45.4148 8.5423 45.4148 16.3603V20.7513C44.8144 20.2693 44.1226 19.9082 43.3586 19.7437V16.3603H41.3024V17.451H40.2742C37.3782 17.451 34.6106 15.9827 32.8721 13.5234L32.0493 12.3618L31.2271 13.5234C29.4886 15.9827 26.721 17.451 23.8244 17.451H22.7963V16.3603H20.7401V19.7426C19.9766 19.9082 19.2843 20.2683 18.6839 20.7502V16.3603C18.6839 8.5423 24.6799 2.18137 32.0493 2.18137ZM18.6839 25.0858C18.6839 23.666 19.5468 22.4661 20.7401 22.0145V27.2672C20.7401 27.5723 20.7617 27.8716 20.7833 28.1715C19.5674 27.7326 18.6839 26.5221 18.6839 25.0858ZM22.7963 27.2672V19.6324H23.8244C26.9379 19.6324 29.9284 18.2461 32.0493 15.8672C34.1703 18.2461 37.1613 19.6324 40.2742 19.6324H41.3024V27.2672C41.3024 32.6801 37.1523 37.0834 32.0493 37.0834C26.9469 37.0834 22.7963 32.6801 22.7963 27.2672ZM27.9369 39.9038V38.4313C29.214 38.9628 30.598 39.2647 32.0493 39.2647C33.5012 39.2647 34.8852 38.9628 36.1618 38.4313V39.9038L32.0493 44.2666L27.9369 39.9038ZM38.218 63.2599C37.084 63.2599 36.1618 62.2816 36.1618 61.0785C36.1618 59.8754 37.084 58.8971 38.218 58.8971H47.471V56.7157H51.5835V63.2599H38.218Z" fill="#352C2C"/>
<path d="M27.9366 21.8137C27.9366 22.416 27.4763 22.9044 26.9085 22.9044C26.3407 22.9044 25.8804 22.416 25.8804 21.8137C25.8804 21.2114 26.3407 20.723 26.9085 20.723C27.4763 20.723 27.9366 21.2114 27.9366 21.8137Z" fill="#352C2C"/>
<path d="M38.2178 21.8137C38.2178 22.416 37.7575 22.9044 37.1897 22.9044C36.622 22.9044 36.1616 22.416 36.1616 21.8137C36.1616 21.2114 36.622 20.723 37.1897 20.723C37.7575 20.723 38.2178 21.2114 38.2178 21.8137Z" fill="#352C2C"/>
</g>
<defs>
<clipPath id="clip0_234_81">
<rect width="64" height="68" fill="white"/>
</clipPath>
</defs>
</svg>
