<svg width="63" height="59" viewBox="0 0 63 59" fill="none" xmlns="http://www.w3.org/2000/svg">
<g clip-path="url(#clip0_220_50)">
<path d="M0 59L4.34479 44.25C1.52074 39.6724 0 34.5862 0 29.2965C0 13.2242 14.1207 0 31.3913 0C48.662 0 63 13.2242 63 29.2965C63 45.3688 48.6621 59 31.3913 59C25.9603 59 20.7466 57.3724 16.0758 54.9311L0 59Z" fill="#EDEDED"/>
<path d="M16.9449 49.6413L17.9225 50.15C21.9415 52.4896 26.6122 53.9137 31.5001 53.9137C45.7294 53.9137 57.5691 42.8258 57.5691 29.2965C57.5691 15.7671 45.7294 5.08618 31.3915 5.08618C17.0535 5.08618 5.43115 15.8689 5.43115 29.2965C5.43115 33.9758 6.84324 38.5534 9.45011 42.4189L10.1019 43.3344L7.60367 51.8793L16.9449 49.6413Z" fill="#55CD6C"/>
<path d="M23.0277 15.6655L20.9639 15.5637C20.3121 15.5637 19.6605 15.7672 19.226 16.1741C18.2484 16.9879 16.6191 18.5137 16.1847 20.5483C15.4244 23.6 16.6191 27.2621 19.4433 30.9241C22.2675 34.5862 27.6985 40.4862 37.2571 43.0293C40.2984 43.843 42.6881 43.3344 44.6433 42.2155C46.164 41.2999 47.1415 39.8759 47.4675 38.3499L47.7933 36.9258C47.902 36.5189 47.6847 36.0102 47.2502 35.8068L40.4071 32.8568C39.9726 32.6533 39.4294 32.7551 39.1036 33.162L36.3881 36.4171C36.1708 36.6206 35.845 36.7222 35.5191 36.6206C33.6726 36.0102 27.4812 33.5689 24.1139 27.4655C24.0053 27.1603 24.0053 26.8551 24.2226 26.6517L26.8294 23.9052C27.0467 23.6001 27.1553 23.1932 27.0467 22.8879L23.8967 16.2759C23.788 15.9706 23.4621 15.6655 23.0277 15.6655Z" fill="#FEFEFE"/>
</g>
<defs>
<clipPath id="clip0_220_50">
<rect width="63" height="59" fill="white"/>
</clipPath>
</defs>
</svg>
